<?xml version="1.0" standalone="no"?>
<!DOCTYPE svg PUBLIC "-//W3C//DTD SVG 20010904//EN"
 "http://www.w3.org/TR/2001/REC-SVG-20010904/DTD/svg10.dtd">
<svg version="1.0" xmlns="http://www.w3.org/2000/svg"
 width="512.000000pt" height="512.000000pt" viewBox="0 0 512.000000 512.000000"
 preserveAspectRatio="xMidYMid meet">

<g transform="translate(0.000000,512.000000) scale(0.100000,-0.100000)"
fill="#000000" stroke="none">
<path d="M2515 5028 c-22 -16 -94 -62 -159 -101 -302 -179 -652 -296 -1023
-343 -247 -31 -628 -17 -841 32 -35 8 -70 14 -78 14 -13 0 -14 -164 -11 -1362
l3 -1363 22 -97 c55 -239 177 -488 335 -683 23 -27 43 -52 45 -55 7 -9 43 47
87 135 86 174 128 392 118 610 -4 93 -2 135 11 185 23 91 76 194 139 271 40
48 57 77 62 110 17 101 68 201 154 299 l39 45 12 -45 c10 -37 79 -210 84 -210
0 0 19 7 41 15 105 38 370 -10 408 -74 8 -15 34 -48 57 -73 35 -41 53 -51 121
-73 44 -14 89 -25 100 -25 18 0 19 -8 19 -105 0 -145 -20 -198 -111 -287 -38
-38 -77 -68 -88 -68 -25 0 -68 -35 -86 -70 -42 -82 -26 -246 34 -345 138 -230
168 -611 81 -1055 -11 -57 -16 -107 -12 -111 15 -15 251 -88 364 -113 113 -25
118 -26 190 -11 426 89 899 316 1288 619 129 100 344 313 432 426 183 237 283
441 341 692 21 92 21 108 24 1456 3 880 0 1362 -6 1362 -5 0 -40 -6 -78 -14
-317 -66 -735 -64 -1069 4 -333 69 -678 214 -942 396 -35 24 -64 44 -65 43 -1
0 -20 -14 -42 -31z m650 -1112 c227 -41 366 -125 397 -239 l11 -44 90 -17
c198 -38 310 -89 367 -167 68 -94 113 -340 114 -624 1 -195 -11 -263 -56 -320
-20 -26 -24 -27 -85 -22 -231 22 -446 193 -529 421 -49 136 -50 283 -3 457 25
95 23 120 -15 138 -25 12 -31 11 -54 -6 -53 -40 -98 -246 -88 -408 17 -288
151 -496 419 -650 l69 -40 33 -86 c130 -338 343 -584 598 -689 31 -13 57 -27
57 -32 0 -14 -78 -164 -117 -225 -104 -164 -287 -368 -463 -515 -354 -297
-792 -524 -1225 -633 -142 -35 -150 -35 -163 17 -36 144 -77 459 -88 673 -16
324 47 682 158 897 32 63 32 63 32 213 0 137 -2 156 -26 223 -34 95 -76 159
-148 225 -71 66 -136 103 -265 151 -328 123 -544 315 -648 576 -83 210 -74
441 21 543 32 33 63 35 197 7 214 -44 424 -61 482 -39 15 5 78 59 138 119
l110 109 60 4 c139 10 531 -1 620 -17z"/>
</g>
</svg>
